<svg width="160" height="72" viewBox="0 0 160 72" fill="none" xmlns="http://www.w3.org/2000/svg">
<path d="M24.9721 15.5407C23.6566 15.0279 21.9175 14.6711 20.7358 14.4928C19.4426 14.3144 17.9264 14.136 16.6332 14.0245C14.6934 13.8907 12.4638 13.7124 10.524 13.311C9.78818 13.155 7.82609 12.6867 7.69231 10.9922C7.55853 9.45374 8.98551 8.42809 10.301 7.93757C12.0847 7.29097 13.7124 7.17949 14.961 7.13489C15.942 7.1126 17.6812 7.15719 19.5764 7.7592C21.1594 8.24972 22.6533 9.0524 23.7904 10.9476L30.9699 9.0301C29.8328 5.8417 27.4916 3.14381 23.9911 1.64994C21.3824 0.557414 18.5284 0 15.4961 0C14.6934 0 13.6232 0.0445931 12.7982 0.111483C9.11929 0.445931 6.13155 1.36009 3.74582 3.233C0.824972 5.55184 -0.200669 9.18618 0.379041 12.6644C0.914158 15.8751 3.03233 18.2163 6.33222 19.398C7.84838 19.9331 9.60981 20.2899 11.7503 20.5574C13.1996 20.7358 14.1806 20.825 15.4292 20.9365C17.2352 21.0702 19.9554 21.3601 21.2486 21.7614C22.5418 22.1628 23.612 22.7871 23.7012 24.0357C23.835 25.6856 22.3634 26.466 21.8729 26.7113C20.3122 27.4693 18.3055 27.8484 16.2319 27.8484C12.2631 27.8484 8.87403 26.4214 7.38016 24.058L0 26.0424C0.802676 28.2051 2.38573 30.2341 4.48161 31.7503C7.42475 33.8907 11.7503 35.0725 16.3211 35.0725C20.1784 35.0725 23.5674 34.359 26.2876 32.7759C29.9889 30.6355 31.5273 27.2241 31.1483 23.01C30.8361 19.5318 28.6511 17.0123 24.9944 15.5853L24.9721 15.5407Z" fill="#FF4052"/>
<path d="M44.4816 0.958736L36.767 34.136H44.3924L45.7079 28.4727H59.8439L61.1594 34.0691H68.7179L61.0479 0.958736H44.4816ZM47.1795 22.2519L50.4794 8.16052H55.0724L58.3946 22.2519H47.1795Z" fill="#FF4052"/>
<path d="M82.6979 0.958736H75.4069V34.0691H82.6979V0.958736Z" fill="#FF4052"/>
<path d="M160 0.958736H130.836V34.0914H160V26.7781H138.127V8.04904H160V0.958736Z" fill="#FF4052"/>
<path d="M153.066 13.6009H145.039V21.2709H153.066V13.6009Z" fill="#FF4052"/>
<path d="M107.313 15.1617V21.3601H116.41C115.853 25.3289 111.639 27.7369 107.313 27.7369C101.672 27.7369 97.1015 23.1661 97.1015 17.5251C97.1015 16.9454 97.1461 16.388 97.2353 15.8305C98.038 10.9922 102.252 7.29097 107.313 7.29097C110.479 7.29097 113.289 8.71795 115.162 10.9699L122.609 8.98551C119.621 3.61204 113.891 0 107.313 0C97.6366 0 89.7882 7.84838 89.7882 17.5251C89.7882 17.6366 89.7882 17.7258 89.7882 17.8372C89.9443 27.3802 97.7258 35.0502 107.291 35.0502C114.783 35.0502 122.453 30.0112 123.657 23.233V15.1617H107.291H107.313Z" fill="#FF4052"/>
<path d="M23.5228 67.8038H33.5339V71.2598H19.175V49.5429H23.5228V67.8038Z" fill="#6A7A7C"/>
<path d="M119.799 71.2598H115.451L105.596 56.3434V71.2598H101.249V49.4984H105.596L115.451 64.437V49.4984H119.799V71.2598Z" fill="#6A7A7C"/>
<path d="M138.662 49.5429V53.0658H132.865V71.2598H128.517V53.0658H122.72V49.5429H138.662Z" fill="#6A7A7C"/>
<path d="M4.86056 52.9989V58.4616H13.913V61.9176H4.86056V67.6924H14.8494V71.2598H0.49044V49.4538H14.8494V53.0212H4.86056V52.9989Z" fill="#6A7A7C"/>
<path d="M42.1403 52.9989V58.4616H51.1927V61.9176H42.1403V67.6924H52.1292V71.2598H37.7702V49.4538H52.1292V53.0212H42.1403V52.9989Z" fill="#6A7A7C"/>
<path d="M86.9341 52.9989V58.4616H95.9865V61.9176H86.9341V67.6924H96.923V71.2598H82.564V49.4538H96.923V53.0212H86.9341V52.9989Z" fill="#6A7A7C"/>
<path d="M155.719 59.4872C154.916 59.1751 153.801 58.9521 153.043 58.8406C152.33 58.7514 151.304 58.6176 150.39 58.5508C149.097 58.4616 147.648 58.3501 146.354 58.0825C144.66 57.7258 144.236 56.8785 144.192 56.2096C144.102 55.184 144.838 54.2921 146.154 53.8016C147.335 53.378 148.406 53.2888 149.32 53.2442C149.922 53.2442 151.126 53.2442 152.464 53.6678C153.333 53.9354 154.426 54.4036 155.273 55.6745L159.242 54.6043C158.461 52.7314 156.99 51.2598 155.072 50.4348C153.422 49.7213 151.616 49.3646 149.699 49.3646C149.142 49.3646 148.45 49.3869 147.982 49.4315C145.507 49.6544 143.679 50.2787 142.274 51.3936C140.602 52.7091 139.844 54.8495 140.223 57.1461C140.535 59.0859 141.806 60.4906 143.835 61.2263C144.727 61.5385 145.797 61.7838 147.291 61.9621C148.227 62.0736 148.874 62.1405 149.677 62.2074C150.524 62.2743 152.575 62.4527 153.556 62.7648C154.002 62.8986 155.34 63.3222 155.451 64.5931C155.518 65.485 155.028 66.2431 154.024 66.7336C152.977 67.2464 151.639 67.514 150.167 67.514C147.581 67.514 145.329 66.5998 144.214 65.1059L140.111 66.1985C140.647 67.3802 141.561 68.4727 142.72 69.32C144.548 70.6578 147.291 71.4159 150.212 71.4159C152.754 71.4159 154.872 70.9253 156.522 69.9666C158.729 68.6734 159.732 66.6667 159.487 63.9688C159.309 61.9175 157.993 60.3568 155.741 59.4649L155.719 59.4872Z" fill="#6A7A7C"/>
<path d="M67.4024 64.2141L61.1594 49.4984H56.5217V71.2152H60.7803V57.3021L65.2619 67.893H69.5206L74.0022 57.3021V71.2152H78.2608V49.4984H73.6454L67.4024 64.2141Z" fill="#6A7A7C"/>
</svg>
