<svg width="160" height="72" viewBox="0 0 160 72" fill="none" xmlns="http://www.w3.org/2000/svg">
<path d="M25.0007 15.584C23.6935 15.0716 21.9479 14.7137 20.7544 14.5429C19.4635 14.3639 17.9533 14.1769 16.6542 14.0793C14.7056 13.941 12.4891 13.7702 10.5486 13.3635C9.8098 13.209 7.85309 12.7454 7.70695 11.0454C7.57704 9.50005 8.99789 8.46708 10.3213 7.9872C12.0994 7.33651 13.7313 7.22264 14.9817 7.18197C15.9722 7.14944 17.7016 7.21451 19.5934 7.80013C21.1847 8.29628 22.6705 9.1015 23.8072 10.9966L30.9764 9.06897C29.8478 5.88059 27.4933 3.17211 23.9939 1.67552C21.3877 0.561219 18.5379 0 15.5176 0C14.7219 0 13.6502 0.0406683 12.822 0.113871C9.14404 0.455482 6.1562 1.37458 3.76917 3.24531C0.846282 5.57152 -0.176729 9.20724 0.39973 12.6884C0.935592 15.9093 3.04657 18.2437 6.35105 19.4312C7.86933 19.9761 9.63118 20.3259 11.7665 20.5861C13.2036 20.7651 14.1941 20.8627 15.4445 20.9603C17.2551 21.0986 19.9587 21.3914 21.2578 21.7981C22.5568 22.2047 23.6123 22.831 23.7179 24.0673C23.8559 25.7103 22.3782 26.5074 21.883 26.7514C20.316 27.516 18.3105 27.882 16.232 27.882C12.2699 27.882 8.8761 26.4586 7.38218 24.0917L0.00189209 26.0763C0.805686 28.2561 2.3808 30.2651 4.47553 31.7861C7.42278 33.9334 11.7422 35.1128 16.3214 35.1128C20.1861 35.1128 23.5555 34.397 26.2916 32.811C29.994 30.6555 31.5285 27.2476 31.1469 23.0262C30.8302 19.5369 28.6381 17.0155 25.0007 15.584Z" fill="#FF4052"/>
<path d="M44.5028 0.976074L36.7978 34.2018H44.4216L45.7451 28.5408H59.8724L61.1877 34.153H68.7466L61.0496 0.984208H44.4947L44.5028 0.976074ZM47.1984 22.3105L50.4948 8.19871H55.0902L58.4028 22.3105H47.1984Z" fill="#FF4052"/>
<path d="M82.7278 0.976074H75.4287V34.153H82.7278V0.976074Z" fill="#FF4052"/>
<path d="M160.006 0.976074H130.842V34.153H159.998V26.8409H138.141V8.06858H160.006V0.976074Z" fill="#FF4052"/>
<path d="M153.08 13.6238H145.05V21.3019H153.08V13.6238Z" fill="#FF4052"/>
<path d="M107.321 15.1855V21.3996H116.406C115.846 25.3606 111.632 27.7926 107.321 27.7926C101.678 27.7926 97.0986 23.2133 97.0986 17.5524C97.0986 16.9749 97.1473 16.4137 97.2366 15.8606C98.0404 11.0129 102.246 7.31215 107.312 7.31215C110.471 7.31215 113.288 8.74367 115.164 11.0048L122.609 9.01208C119.613 3.63577 113.889 0.00817871 107.304 0.00817871C97.6263 0.00817871 89.7832 7.86524 89.7832 17.5605C89.7832 17.6662 89.7832 17.7638 89.7832 17.8696C89.9456 27.4184 97.7238 35.1047 107.296 35.1047C114.782 35.1047 122.455 30.0618 123.648 23.2784V15.1855H107.296H107.321Z" fill="#FF4052"/>
<path d="M81.7048 46.7858V50.8688H69.2257V57.335H79.2528V61.3449H69.2257V71.9999H64.1756V46.7858H81.7048Z" fill="#6A7A7C"/>
<path d="M90.1405 50.8689V57.1887H100.598V61.1986H90.1405V67.8844H101.686V72H85.0985V46.7533H101.686V50.8689H90.1405Z" fill="#6A7A7C"/>
<path d="M123.526 46.7858V50.8688H116.82V71.9999H111.77V50.8688H105.063V46.7858H123.526Z" fill="#6A7A7C"/>
<path d="M147.218 46.7858L138.709 63.2238V71.9999H133.659V63.2238L125.118 46.7858H130.817L136.225 58.3111L141.6 46.7858H147.226H147.218Z" fill="#6A7A7C"/>
<path d="M55.5449 71.9104H60.4245L53.848 46.7369H43.7315L37.1469 71.9511H42.0752L43.3581 67.2336H54.2783L55.553 71.9104H55.5449ZM44.4542 63.1505L47.6125 51.5114H49.9914L53.166 63.1505H44.4623H44.4542Z" fill="#6A7A7C"/>
<path d="M30.8384 58.1241C29.8966 57.7581 28.6218 57.4896 27.745 57.3676C26.9331 57.2538 25.7396 57.0992 24.6841 57.026C23.1983 56.9203 21.5176 56.7983 20.0237 56.4811C18.067 56.0662 17.5798 55.0821 17.5149 54.3175C17.4174 53.13 18.2618 52.0889 19.7882 51.5358C21.1522 51.0397 22.4026 50.934 23.4418 50.9014C24.1401 50.8852 25.5366 50.9096 27.0711 51.3894C28.0779 51.7067 29.3363 52.2516 30.3187 53.7075L34.8979 52.4793C33.9886 50.2995 32.2917 48.5996 30.0671 47.648C28.1591 46.8346 26.0724 46.4198 23.8559 46.4198C23.1983 46.4198 22.4188 46.4523 21.8667 46.5093C19.0007 46.7777 16.9059 47.5016 15.2821 48.7785C13.3498 50.2914 12.4648 52.7884 12.9032 55.44C13.2767 57.6767 14.7219 59.3116 17.0927 60.1656C18.1319 60.5397 19.3579 60.8 21.0792 61.0115C22.159 61.1416 22.8979 61.2148 23.8316 61.2962C24.7977 61.3694 27.1766 61.589 28.3214 61.9468C28.8329 62.1095 30.3756 62.5894 30.4974 64.0616C30.5867 65.1027 30.0021 65.9811 28.8573 66.5424C27.6476 67.1361 26.0968 67.4452 24.3918 67.4452C21.3877 67.4452 18.7977 66.3878 17.523 64.6553L12.7814 65.9242C13.3985 67.2988 14.454 68.5676 15.7936 69.5436C17.9046 71.0809 21.0629 71.9593 24.4486 71.9593C27.3715 71.9593 29.8235 71.3981 31.7315 70.2838C34.289 68.7953 35.4419 66.461 35.1659 63.354C34.9548 60.9708 33.4527 59.1652 30.8303 58.1322L30.8384 58.1241Z" fill="#6A7A7C"/>
</svg>
