<svg width="160" height="72" viewBox="0 0 160 72" fill="none" xmlns="http://www.w3.org/2000/svg">
<path d="M24.9969 15.5359C23.6898 15.025 21.9441 14.6683 20.7506 14.498C19.4597 14.3196 17.9495 14.1331 16.6505 14.0358C14.7019 13.8979 12.4853 13.7277 10.5449 13.3222C9.80604 13.1682 7.84932 12.706 7.70318 11.0113C7.57327 9.47071 8.99412 8.44094 10.3175 7.96253C12.0956 7.31386 13.7276 7.20034 14.9779 7.15979C15.9685 7.12736 17.6978 7.19223 19.5896 7.77604C21.1809 8.27066 22.6667 9.0734 23.8034 10.9627L30.9726 9.04096C29.8441 5.86244 27.4895 3.16231 23.9902 1.67035C21.3839 0.559486 18.5341 0 15.5138 0C14.7181 0 13.6464 0.0405427 12.8182 0.113519C9.14027 0.454076 6.15243 1.37033 3.7654 3.23529C0.842513 5.55431 -0.180498 9.17881 0.395961 12.6492C0.931823 15.8602 3.0428 18.1873 6.34729 19.3712C7.86556 19.9144 9.62741 20.2631 11.7627 20.5226C13.1998 20.701 14.1904 20.7983 15.4407 20.8956C17.2513 21.0334 19.955 21.3253 21.254 21.7307C22.5531 22.1362 23.6086 22.7605 23.7141 23.993C23.8521 25.6309 22.3745 26.4256 21.8792 26.6688C20.3122 27.431 18.3068 27.7959 16.2283 27.7959C12.2661 27.7959 8.87234 26.3769 7.37842 24.0173L-0.00187683 25.9958C0.801917 28.1689 2.37703 30.1717 4.47177 31.688C7.41901 33.8286 11.7384 35.0043 16.3176 35.0043C20.1823 35.0043 23.5517 34.2908 26.2879 32.7096C29.9902 30.5609 31.5247 27.1634 31.1431 22.9551C30.8265 19.4766 28.6343 16.963 24.9969 15.5359Z" fill="#FF4052"/>
<path d="M44.4991 0.973022L36.794 34.0962H44.4179L45.7413 28.4527H59.8686L61.1839 34.0475H68.7428L61.0459 0.981131H44.4909L44.4991 0.973022ZM47.1946 22.2416L50.491 8.17336H55.0864L58.399 22.2416H47.1946Z" fill="#FF4052"/>
<path d="M82.724 0.973022H75.4249V34.0475H82.724V0.973022Z" fill="#FF4052"/>
<path d="M160.002 0.973022H130.838V34.0475H159.994V26.758H138.137V8.04362H160.002V0.973022Z" fill="#FF4052"/>
<path d="M153.076 13.5817H145.046V21.2361H153.076V13.5817Z" fill="#FF4052"/>
<path d="M107.317 15.1386V21.3335H116.402C115.842 25.2823 111.628 27.7068 107.317 27.7068C101.674 27.7068 97.0948 23.1417 97.0948 17.4982C97.0948 16.9225 97.1435 16.363 97.2328 15.8116C98.0366 10.979 102.242 7.2896 107.309 7.2896C110.467 7.2896 113.284 8.71669 115.16 10.9709L122.605 8.98427C119.609 3.62456 113.885 0.00817871 107.301 0.00817871C97.6226 0.00817871 89.7795 7.84097 89.7795 17.5063C89.7795 17.6117 89.7795 17.709 89.7795 17.8144C89.9419 27.3338 97.72 34.9963 107.292 34.9963C114.778 34.9963 122.451 29.969 123.644 23.2066V15.1386H107.292H107.317Z" fill="#FF4052"/>
<path d="M66.8673 46.6287V71.8136H61.8091V46.6287H66.8673Z" fill="#6A7A7C"/>
<path d="M99.3519 46.6287V71.8136H94.2937V55.4264L87.5386 71.8136H83.7063L76.9106 55.4264V71.8136H71.8524V46.6287H77.6007L85.6224 65.3593L93.6441 46.6287H99.3519Z" fill="#6A7A7C"/>
<path d="M53.1784 46.6287L47.6249 67.0458H45.246L39.6763 46.6692H34.7886L41.3813 71.8217H51.5221L58.1148 46.6287H53.1784Z" fill="#6A7A7C"/>
<path d="M120.819 58.1669C119.877 57.802 118.602 57.5344 117.717 57.4128C116.897 57.2992 115.704 57.1452 114.648 57.0722C113.163 56.9668 111.474 56.8371 109.972 56.5289C108.007 56.1154 107.52 55.1262 107.463 54.3721C107.366 53.1882 108.218 52.1504 109.744 51.5909C111.108 51.0963 112.359 50.9909 113.406 50.9584C114.104 50.9422 115.501 50.9665 117.044 51.4449C118.05 51.7612 119.317 52.3044 120.299 53.7639L124.887 52.5396C123.977 50.3665 122.272 48.6637 120.048 47.7069C118.14 46.8961 116.045 46.4825 113.82 46.4825C113.163 46.4825 112.383 46.515 111.831 46.5717C108.957 46.8393 106.862 47.561 105.23 48.834C103.298 50.3503 102.405 52.8396 102.851 55.4911C103.225 57.729 104.678 59.3588 107.049 60.2102C108.088 60.5832 109.322 60.8427 111.044 61.0535C112.123 61.1832 112.862 61.2562 113.804 61.3373C114.778 61.4103 117.157 61.6292 118.302 61.986C118.814 62.1481 120.356 62.6265 120.486 64.1023C120.575 65.1402 119.991 66.0159 118.838 66.5754C117.62 67.1673 116.077 67.4754 114.364 67.4754C111.36 67.4754 108.762 66.4132 107.479 64.6942L102.73 65.9672C103.347 67.3376 104.402 68.6025 105.75 69.5836C107.869 71.1161 111.027 72 114.429 72C117.36 72 119.812 71.4405 121.728 70.3296C124.294 68.8458 125.447 66.5105 125.171 63.4049C124.96 61.0211 123.45 59.221 120.819 58.1912V58.1669Z" fill="#6A7A7C"/>
</svg>
