<svg width="160" height="72" viewBox="0 0 160 72" fill="none" xmlns="http://www.w3.org/2000/svg">
<path d="M24.9932 15.4898C23.686 14.9805 21.9404 14.6247 20.7469 14.455C19.4559 14.2771 17.9458 14.0912 16.6467 13.9942C14.6981 13.8567 12.4816 13.687 10.5411 13.2827C9.80227 13.1291 7.84556 12.6683 7.69941 10.9787C7.56951 9.44262 8.99035 8.4159 10.3138 7.93892C12.0919 7.29216 13.7238 7.17898 14.9742 7.13856C15.9647 7.10622 17.6941 7.1709 19.5858 7.75297C21.1772 8.24613 22.663 9.04648 23.7997 10.9302L30.9688 9.01415C29.8403 5.84505 27.4857 3.15293 23.9864 1.66539C21.3801 0.557826 18.5303 0 15.51 0C14.7143 0 13.6426 0.0404225 12.8145 0.113182C9.1365 0.452729 6.14866 1.36627 3.76163 3.22569C0.838744 5.53784 -0.184267 9.15158 0.392192 12.6117C0.928055 15.8132 3.03903 18.1334 6.34352 19.3137C7.86179 19.8554 9.62365 20.203 11.759 20.4617C13.1961 20.6396 14.1866 20.7366 15.4369 20.8336C17.2475 20.971 19.9512 21.2621 21.2502 21.6663C22.5493 22.0705 23.6048 22.693 23.7103 23.9218C23.8484 25.5549 22.3707 26.3472 21.8754 26.5897C20.3084 27.3496 18.303 27.7134 16.2245 27.7134C12.2624 27.7134 8.86857 26.2987 7.37465 23.9461L-0.00564575 25.9187C0.798148 28.0853 2.37326 30.0822 4.468 31.594C7.41524 33.7283 11.7346 34.9005 16.3138 34.9005C20.1785 34.9005 23.548 34.1891 26.2841 32.6126C29.9864 30.4702 31.5209 27.0829 31.1393 22.887C30.8227 19.4188 28.6305 16.9126 24.9932 15.4898Z" fill="#FF4052"/>
<path d="M44.4953 0.970093L36.7903 33.995H44.4141L45.7375 28.3682H59.8648L61.1801 33.9465H68.739L61.0421 0.978177H44.4872L44.4953 0.970093ZM47.1909 22.1756L50.4872 8.14907H55.0827L58.3953 22.1756H47.1909Z" fill="#FF4052"/>
<path d="M82.7202 0.970093H75.4211V33.9465H82.7202V0.970093Z" fill="#FF4052"/>
<path d="M159.998 0.970093H130.834V33.9465H159.99V26.6786H138.133V8.01972H159.998V0.970093Z" fill="#FF4052"/>
<path d="M153.073 13.5414H145.043V21.1731H153.073V13.5414Z" fill="#FF4052"/>
<path d="M107.313 15.0937V21.2702H116.398C115.838 25.2074 111.624 27.6246 107.313 27.6246C101.67 27.6246 97.091 23.0731 97.091 17.4463C97.091 16.8723 97.1398 16.3145 97.2291 15.7647C98.0329 10.9464 102.239 7.268 107.305 7.268C110.463 7.268 113.281 8.69086 115.156 10.9383L122.601 8.95765C119.605 3.61384 113.881 0.00817871 107.297 0.00817871C97.6188 0.00817871 89.7757 7.81774 89.7757 17.4544C89.7757 17.5595 89.7757 17.6565 89.7757 17.7616C89.9381 27.2527 97.7162 34.8925 107.289 34.8925C114.775 34.8925 122.447 29.8802 123.641 23.1377V15.0937H107.289H107.313Z" fill="#FF4052"/>
<path d="M51.2341 46.8978V71.7332H46.2328V46.8978H51.2341Z" fill="#6A7A7C"/>
<path d="M86.528 46.8978V71.7332H81.5266V46.8978H86.528Z" fill="#6A7A7C"/>
<path d="M96.6038 70.3427C94.6471 69.2513 93.1045 67.7395 91.9597 65.8073C90.8149 63.8751 90.2466 61.6842 90.2466 59.2427C90.2466 56.8012 90.8149 54.6508 91.9597 52.7186C93.1045 50.7864 94.6552 49.2746 96.6038 48.1832C98.5605 47.0918 100.704 46.5502 103.034 46.5502C105.364 46.5502 107.54 47.0918 109.481 48.1832C111.421 49.2746 112.956 50.7864 114.092 52.7186C115.221 54.6508 115.789 56.8255 115.789 59.2427C115.789 61.66 115.221 63.8751 114.092 65.8073C112.964 67.7395 111.421 69.2513 109.465 70.3427C107.508 71.4341 105.364 71.9757 103.034 71.9757C100.704 71.9757 98.5524 71.426 96.6038 70.3427ZM107.004 66.5187C108.149 65.8396 109.042 64.8776 109.684 63.6164C110.325 62.3633 110.65 60.9 110.65 59.2427C110.65 57.5854 110.325 56.1302 109.684 54.8852C109.042 53.6402 108.149 52.6863 107.004 52.0233C105.86 51.3604 104.536 51.0289 103.042 51.0289C101.548 51.0289 100.217 51.3604 99.0558 52.0233C97.9029 52.6863 97.0017 53.6402 96.3603 54.8852C95.7188 56.1302 95.3941 57.5854 95.3941 59.2427C95.3941 60.9 95.7188 62.3633 96.3603 63.6164C97.0017 64.8776 97.9029 65.8396 99.0558 66.5187C100.209 67.1978 101.54 67.5293 103.042 67.5293C104.544 67.5293 105.868 67.1897 107.004 66.5187Z" fill="#6A7A7C"/>
<path d="M140.837 71.7251H135.836L124.509 54.6832V71.7251H119.508V46.8574H124.509L135.836 63.9318V46.8574H140.837V71.7251Z" fill="#6A7A7C"/>
<path d="M73.2126 58.2079C72.2708 57.8441 70.9961 57.5773 70.1111 57.456C69.2911 57.3429 68.0975 57.1893 67.0421 57.1165C65.5563 57.0114 63.8675 56.8821 62.3654 56.5748C60.4006 56.1625 59.9135 55.1762 59.8566 54.4244C59.7592 53.2441 60.6117 52.2092 62.1381 51.6514C63.5021 51.1583 64.7525 51.0532 65.7998 51.0208C66.4981 51.0047 67.8946 51.0289 69.4372 51.5059C70.444 51.8212 71.7106 52.3628 72.693 53.818L77.2803 52.5973C76.3709 50.4307 74.6659 48.7329 72.4413 47.779C70.5333 46.9705 68.4385 46.5582 66.2139 46.5582C65.5563 46.5582 64.7768 46.5906 64.2247 46.6472C61.3505 46.9139 59.2558 47.6335 57.6239 48.9027C55.6915 50.4145 54.7984 52.8964 55.245 55.54C55.6184 57.7713 57.0718 59.3963 59.4425 60.2452C60.4818 60.6171 61.7159 60.8758 63.4372 61.086C64.517 61.2153 65.2558 61.2881 66.1977 61.3689C67.172 61.4417 69.5509 61.66 70.6957 62.0157C71.2072 62.1774 72.7498 62.6543 72.8797 64.1257C72.969 65.1605 72.3844 66.0336 71.2315 66.5915C70.0137 67.1816 68.471 67.4888 66.7579 67.4888C63.7538 67.4888 61.1557 66.4298 59.8729 64.7159L55.1232 65.9851C55.7402 67.3514 56.7957 68.6126 58.1435 69.5908C60.2626 71.1187 63.4209 71.9999 66.8228 71.9999C69.7538 71.9999 72.2058 71.4421 74.1219 70.3346C76.6876 68.8551 77.8405 66.5268 77.5645 63.4304C77.3534 61.0536 75.8432 59.2589 73.2126 58.2321V58.2079Z" fill="#6A7A7C"/>
<path d="M37.3504 46.8978L31.8538 67.02H29.4992L23.9945 46.9382H19.1636L25.6832 71.7251H35.7104L42.23 46.8978H37.3504Z" fill="#6A7A7C"/>
</svg>
